<svg width="14" height="13" viewBox="0 0 14 13" fill="none" xmlns="http://www.w3.org/2000/svg">
<path d="M13.707 5.57195C13.7067 5.5717 13.7065 5.57142 13.7062 5.57117L8.69774 0.562707C8.30483 0.173268 7.6706 0.176085 7.28116 0.568999C7.25039 0.600052 7.22169 0.633076 7.1952 0.667885C6.91439 1.08675 6.97568 1.64691 7.34045 1.99513L10.1051 4.76982C10.2521 4.91694 10.4211 5.04031 10.606 5.13544L10.9115 5.29571H1.06985C0.565909 5.27451 0.119843 5.61913 0.0130684 6.11209C-0.0754875 6.65816 0.295389 7.17266 0.8415 7.26122C0.898784 7.27051 0.956757 7.2748 1.01476 7.27405H10.8915L10.6761 7.37422C10.466 7.47235 10.2745 7.60624 10.1101 7.76989L7.34045 10.5396C6.97568 10.8878 6.91439 11.4479 7.1952 11.8668C7.52204 12.3132 8.14882 12.4101 8.5952 12.0832C8.63126 12.0568 8.66553 12.028 8.69774 11.997L13.7062 6.98857C14.0976 6.59759 14.0979 5.96337 13.707 5.57195Z" fill="#1A064F"/>
</svg>
