<svg width="17" height="17" viewBox="0 0 17 17" fill="none" xmlns="http://www.w3.org/2000/svg">
<g clip-path="url(#clip0_516_1653)">
<path d="M8.51551 0.125C4.04628 0.125 0.41008 3.76102 0.41008 8.23044C0.41008 12.6999 4.04628 16.3359 8.51551 16.3359C12.9849 16.3359 16.6209 12.6999 16.6209 8.23044C16.6209 3.76102 12.9847 0.125 8.51551 0.125ZM8.51551 15.1526C4.69867 15.1526 1.59335 12.0473 1.59335 8.23044C1.59335 4.4136 4.69867 1.30827 8.51551 1.30827C12.3323 1.30827 15.4377 4.41357 15.4377 8.23025C15.4377 12.0473 12.3323 15.1526 8.51551 15.1526Z" fill="#172755"/>
<path d="M11.2765 8.23034H8.71279V4.6805C8.71279 4.35372 8.44794 4.08887 8.12116 4.08887C7.79438 4.08887 7.52953 4.35372 7.52953 4.6805V8.82197C7.52953 9.14875 7.79438 9.4136 8.12116 9.4136H11.2765C11.6033 9.4136 11.8682 9.14875 11.8682 8.82197C11.8682 8.49519 11.6033 8.23034 11.2765 8.23034Z" fill="#172755"/>
</g>
<defs>
<clipPath id="clip0_516_1653">
<rect width="16.2109" height="16.2109" fill="white" transform="translate(0.41008 0.125)"/>
</clipPath>
</defs>
</svg>
