<svg width="24" height="24" viewBox="0 0 24 24" fill="none" xmlns="http://www.w3.org/2000/svg">
<g clip-path="url(#clip0_514_2019)">
<path d="M3.98314 11.5049L3.12625 10.9719L3.0907 10.9499L2.79292 10.7639L2.01337 10.2799L1.04003 9.67387C0.948076 9.61676 0.870861 9.53379 0.815936 9.43307C0.761011 9.33235 0.730254 9.21731 0.726672 9.09922C0.723089 8.98112 0.746803 8.864 0.795496 8.75929C0.844189 8.65459 0.916195 8.56589 1.00448 8.50187L11.6711 0.762868C11.7694 0.691362 11.8839 0.65332 12.0009 0.65332C12.1179 0.65332 12.2325 0.691362 12.3307 0.762868L22.9974 8.50287C23.0854 8.56695 23.1573 8.65561 23.2058 8.7602C23.2544 8.8648 23.278 8.98177 23.2744 9.0997C23.2708 9.21763 23.2402 9.33251 23.1854 9.43313C23.1306 9.53376 23.0536 9.6167 22.9618 9.67387L20.8747 10.9729L20.0169 11.5059L18.832 12.2429L18.5334 12.4279L12.2951 16.3079C12.2052 16.3638 12.1041 16.3932 12.0014 16.3932C11.8986 16.3932 11.7975 16.3638 11.7076 16.3079L5.46759 12.4279L5.16892 12.2419L3.98314 11.5049ZM19.6898 13.1949L19.7191 13.1769V18.3269C19.7189 18.3985 19.7087 18.4697 19.6889 18.5379L19.6898 13.1949ZM19.3787 18.9039L19.5449 18.8069C19.5002 18.858 19.4486 18.9009 19.392 18.9339L12.2809 23.1019C12.2246 23.1349 12.164 23.1579 12.1014 23.1699L12.2676 23.0729L19.3787 18.9039ZM11.7334 23.0729L11.8996 23.1699C11.8369 23.1579 11.7764 23.1349 11.72 23.1019L4.60892 18.9339C4.55235 18.9008 4.50075 18.858 4.45603 18.8069L4.62225 18.9039L11.7334 23.0729ZM4.31114 18.3279V18.5379C4.29168 18.47 4.28179 18.3992 4.28181 18.3279V13.1759L4.31114 13.1939V18.3279ZM1.91114 20.6699V11.7019L1.93514 11.7169V20.6749C1.93361 20.6781 1.93108 20.6806 1.92803 20.6819L1.92359 20.6829C1.92193 20.683 1.92027 20.6827 1.91872 20.6821C1.91718 20.6814 1.9158 20.6803 1.9147 20.6789C1.91362 20.6777 1.91272 20.6764 1.91203 20.6749L1.91114 20.6699Z" stroke="#505863" stroke-width="1.3"/>
</g>
<defs>
<clipPath id="clip0_514_2019">
<rect width="24" height="24" fill="white"/>
</clipPath>
</defs>
</svg>
