<svg width="19" height="19" viewBox="0 0 19 19" fill="none" xmlns="http://www.w3.org/2000/svg">
<path d="M9.75 5.00781C12.2109 5.00781 14.2422 7.03906 14.2422 9.5C14.2422 12 12.2109 13.9922 9.75 13.9922C7.25 13.9922 5.25781 12 5.25781 9.5C5.25781 7.03906 7.25 5.00781 9.75 5.00781ZM9.75 12.4297C11.3516 12.4297 12.6406 11.1406 12.6406 9.5C12.6406 7.89844 11.3516 6.60938 9.75 6.60938C8.10938 6.60938 6.82031 7.89844 6.82031 9.5C6.82031 11.1406 8.14844 12.4297 9.75 12.4297ZM15.4531 4.85156C15.4531 5.4375 14.9844 5.90625 14.3984 5.90625C13.8125 5.90625 13.3438 5.4375 13.3438 4.85156C13.3438 4.26562 13.8125 3.79688 14.3984 3.79688C14.9844 3.79688 15.4531 4.26562 15.4531 4.85156ZM18.4219 5.90625C18.5 7.35156 18.5 11.6875 18.4219 13.1328C18.3438 14.5391 18.0312 15.75 17.0156 16.8047C16 17.8203 14.75 18.1328 13.3438 18.2109C11.8984 18.2891 7.5625 18.2891 6.11719 18.2109C4.71094 18.1328 3.5 17.8203 2.44531 16.8047C1.42969 15.75 1.11719 14.5391 1.03906 13.1328C0.960938 11.6875 0.960938 7.35156 1.03906 5.90625C1.11719 4.5 1.42969 3.25 2.44531 2.23438C3.5 1.21875 4.71094 0.90625 6.11719 0.828125C7.5625 0.75 11.8984 0.75 13.3438 0.828125C14.75 0.90625 16 1.21875 17.0156 2.23438C18.0312 3.25 18.3438 4.5 18.4219 5.90625ZM16.5469 14.6562C17.0156 13.5234 16.8984 10.7891 16.8984 9.5C16.8984 8.25 17.0156 5.51562 16.5469 4.34375C16.2344 3.60156 15.6484 2.97656 14.9062 2.70312C13.7344 2.23438 11 2.35156 9.75 2.35156C8.46094 2.35156 5.72656 2.23438 4.59375 2.70312C3.8125 3.01562 3.22656 3.60156 2.91406 4.34375C2.44531 5.51562 2.5625 8.25 2.5625 9.5C2.5625 10.7891 2.44531 13.5234 2.91406 14.6562C3.22656 15.4375 3.8125 16.0234 4.59375 16.3359C5.72656 16.8047 8.46094 16.6875 9.75 16.6875C11 16.6875 13.7344 16.8047 14.9062 16.3359C15.6484 16.0234 16.2734 15.4375 16.5469 14.6562Z" fill="white"/>
</svg>
