<svg width="17" height="17" viewBox="0 0 17 17" fill="none" xmlns="http://www.w3.org/2000/svg">
<g clip-path="url(#clip0_516_1646)">
<path d="M13.9984 3.48964L10.9455 0.601384C10.6207 0.294169 10.1957 0.125 9.74871 0.125H3.93633C2.97612 0.125 2.19493 0.906193 2.19493 1.8664V14.5945C2.19493 15.5547 2.97612 16.3359 3.93633 16.3359H12.8016C13.7618 16.3359 14.543 15.5547 14.543 14.5945V4.75466C14.543 4.27818 14.3445 3.81709 13.9984 3.48964V3.48964ZM13.0759 3.92442H10.712C10.6247 3.92442 10.5537 3.85341 10.5537 3.76611V1.53826L13.0759 3.92442ZM12.8016 15.386H3.93633C3.49987 15.386 3.14479 15.0309 3.14479 14.5945V1.8664C3.14479 1.42994 3.49987 1.07486 3.93633 1.07486H9.6038V3.76611C9.6038 4.37716 10.1009 4.87428 10.712 4.87428H13.5932V14.5945C13.5932 15.0309 13.2381 15.386 12.8016 15.386Z" fill="#172755"/>
<path d="M11.7568 6.45752H4.79121C4.52892 6.45752 4.31628 6.67016 4.31628 6.93245C4.31628 7.19473 4.52892 7.40738 4.79121 7.40738H11.7568C12.0191 7.40738 12.2317 7.19473 12.2317 6.93245C12.2317 6.67016 12.0191 6.45752 11.7568 6.45752Z" fill="#172755"/>
<path d="M11.7568 8.99023H4.79121C4.52892 8.99023 4.31628 9.20288 4.31628 9.46516C4.31628 9.72745 4.52892 9.94009 4.79121 9.94009H11.7568C12.0191 9.94009 12.2317 9.72745 12.2317 9.46516C12.2317 9.20288 12.0191 8.99023 11.7568 8.99023Z" fill="#172755"/>
<path d="M7.09366 11.5234H4.79121C4.52892 11.5234 4.31628 11.7361 4.31628 11.9984C4.31628 12.2607 4.52892 12.4733 4.79121 12.4733H7.09366C7.35595 12.4733 7.56859 12.2607 7.56859 11.9984C7.56859 11.7361 7.35595 11.5234 7.09366 11.5234Z" fill="#172755"/>
</g>
<defs>
<clipPath id="clip0_516_1646">
<rect width="16.2109" height="16.2109" fill="white" transform="translate(0.263565 0.125)"/>
</clipPath>
</defs>
</svg>
