<svg width="17" height="17" viewBox="0 0 17 17" fill="none" xmlns="http://www.w3.org/2000/svg">
<g clip-path="url(#clip0_516_1662)">
<path d="M2.70052 9.42627C1.49658 9.42627 0.517059 10.4058 0.517059 11.6097V14.1522C0.517059 15.3561 1.49658 16.3356 2.70055 16.3356C3.90452 16.3356 4.88401 15.3561 4.88401 14.1522V11.6097C4.88401 10.4058 3.90449 9.42627 2.70052 9.42627ZM3.61751 14.1522C3.61751 14.6578 3.20616 15.0692 2.70052 15.0692C2.19491 15.0692 1.78353 14.6578 1.78353 14.1522V11.6097C1.78353 11.1041 2.19491 10.6927 2.70055 10.6927C3.20619 10.6927 3.61754 11.1041 3.61751 11.6097V14.1522V14.1522Z" fill="#172755"/>
<path d="M8.62237 0.125C7.4184 0.125 6.43888 1.10452 6.43888 2.3085V14.1524C6.43888 15.3564 7.4184 16.3359 8.62237 16.3359C9.82634 16.3359 10.8059 15.3564 10.8059 14.1524V2.3085C10.8059 1.10452 9.82634 0.125 8.62237 0.125ZM9.53939 14.1524C9.53939 14.6581 9.12801 15.0694 8.62237 15.0694C8.11673 15.0694 7.70535 14.6581 7.70535 14.1524V2.3085C7.70535 1.80283 8.11673 1.39147 8.62237 1.39147C9.12801 1.39147 9.53939 1.80283 9.53939 2.3085V14.1524Z" fill="#172755"/>
<path d="M14.5442 4.77588C13.3403 4.77588 12.3608 5.7554 12.3608 6.95938V14.1525C12.3608 15.3565 13.3403 16.336 14.5443 16.336C15.7482 16.336 16.7277 15.3565 16.7277 14.1525V6.95938C16.7277 5.7554 15.7482 4.77588 14.5442 4.77588ZM15.4613 14.1525C15.4613 14.6582 15.0499 15.0696 14.5442 15.0696C14.0386 15.0696 13.6272 14.6582 13.6272 14.1525V6.95938C13.6272 6.4537 14.0386 6.04235 14.5443 6.04235C15.0499 6.04235 15.4613 6.4537 15.4613 6.95938V14.1525Z" fill="#172755"/>
</g>
<defs>
<clipPath id="clip0_516_1662">
<rect width="16.2108" height="16.2109" fill="white" transform="translate(0.517059 0.125)"/>
</clipPath>
</defs>
</svg>
