<svg width="18" height="18" viewBox="0 0 18 18" fill="none" xmlns="http://www.w3.org/2000/svg">
<path d="M3.90625 17.6904H0.273438V6.01074H3.90625V17.6904ZM2.07031 4.44824C0.9375 4.44824 0 3.47168 0 2.2998C0 1.16699 0.9375 0.229492 2.07031 0.229492C3.24219 0.229492 4.17969 1.16699 4.17969 2.2998C4.17969 3.47168 3.24219 4.44824 2.07031 4.44824ZM17.4609 17.6904H13.8672V12.0264C13.8672 10.6592 13.8281 8.94043 11.9531 8.94043C10.0781 8.94043 9.80469 10.3857 9.80469 11.9092V17.6904H6.17188V6.01074H9.64844V7.6123H9.6875C10.1953 6.71387 11.3672 5.7373 13.125 5.7373C16.7969 5.7373 17.5 8.15918 17.5 11.2842V17.6904H17.4609Z" fill="white"/>
</svg>
