<svg width="248" height="74" viewBox="0 0 248 74" fill="none" xmlns="http://www.w3.org/2000/svg">
<g filter="url(#filter0_d_513_1112)">
<path d="M82.4873 56.6807C82.6305 56.5732 82.8633 56.3942 83.1855 56.1436C83.472 55.8929 83.8301 55.4274 84.2598 54.7471C84.6536 54.0667 85.1012 53.082 85.6025 51.793C86.1038 50.5039 86.623 48.7493 87.1602 46.5293C87.4466 45.3477 87.8226 43.8438 88.2881 42.0176C88.7536 40.1914 89.2549 38.2399 89.792 36.1631C90.3649 34.0863 90.9378 31.9557 91.5107 29.7715C92.0837 27.5514 92.6387 25.4567 93.1758 23.4873C93.7129 21.4821 94.1963 19.6738 94.626 18.0625C95.0557 16.4512 95.3958 15.1979 95.6465 14.3027C94.9661 14.7324 94.3037 15.2158 93.6592 15.7529C93.0863 16.2184 92.4775 16.7555 91.833 17.3643C91.1885 17.9372 90.5618 18.5459 89.9531 19.1904C89.4876 18.7965 89.1296 18.3669 88.8789 17.9014C88.7357 17.6865 88.6104 17.4538 88.5029 17.2031C88.2881 16.666 88.1807 16.111 88.1807 15.5381C88.1807 14.9652 88.6283 14.3743 89.5234 13.7656C89.9889 13.4434 90.6872 12.9779 91.6182 12.3691C92.585 11.7604 93.7666 11.1696 95.1631 10.5967C96.5596 9.98796 98.1888 9.46875 100.051 9.03906C101.913 8.60938 103.972 8.39453 106.228 8.39453C108.483 8.39453 110.292 8.84212 111.652 9.7373C113.049 10.6325 114.105 11.7246 114.821 13.0137C115.573 14.3027 116.057 15.6634 116.271 17.0957C116.486 18.528 116.54 19.7812 116.433 20.8555C116.218 22.8607 115.573 24.9554 114.499 27.1396C113.425 29.3239 111.939 31.347 110.041 33.209C108.143 35.0352 105.834 36.5928 103.112 37.8818C100.391 39.1709 97.2757 39.9049 93.7666 40.084C93.4801 41.4447 93.1937 42.8411 92.9072 44.2734C92.6208 45.7057 92.3164 47.1201 91.9941 48.5166C91.6719 49.8773 91.3317 51.1484 90.9736 52.3301C90.6514 53.5475 90.3112 54.5859 89.9531 55.4453C89.5951 56.3763 89.1296 57.1104 88.5566 57.6475C87.9837 58.2204 87.0706 58.5068 85.8174 58.5068C85.1729 58.5068 84.582 58.3457 84.0449 58.0234C83.472 57.7012 82.9528 57.2536 82.4873 56.6807ZM95.2168 32.1885C95.1094 32.7614 94.9661 33.5133 94.7871 34.4443C94.6439 35.3395 94.4648 36.36 94.25 37.5059C95.2168 37.3626 96.291 37.112 97.4727 36.7539C98.6543 36.36 99.8359 35.8408 101.018 35.1963C102.199 34.5518 103.345 33.7819 104.455 32.8867C105.601 31.9557 106.639 30.8994 107.57 29.7178C108.501 28.5003 109.271 27.1396 109.88 25.6357C110.524 24.096 110.936 22.3952 111.115 20.5332C111.294 18.7428 111.187 17.2568 110.793 16.0752C110.435 14.8577 109.898 13.891 109.182 13.1748C108.465 12.4229 107.642 11.9036 106.711 11.6172C105.78 11.2949 104.849 11.1338 103.918 11.1338C103.023 11.1338 102.146 11.2591 101.286 11.5098C100.427 11.7604 99.5674 12.0827 98.708 12.4766C98.8154 12.5124 98.9408 12.6019 99.084 12.7451C99.2988 12.96 99.46 13.2643 99.5674 13.6582C98.708 17.1315 97.9919 20.0319 97.4189 22.3594C96.8818 24.6868 96.4521 26.5846 96.1299 28.0527C95.736 29.7715 95.4316 31.1501 95.2168 32.1885ZM143.181 38.3115C142.679 39.0277 142.035 39.9229 141.247 40.9971C140.459 42.0355 139.636 43.0918 138.776 44.166C137.953 45.2044 137.129 46.1712 136.306 47.0664C135.518 47.9258 134.855 48.5345 134.318 48.8926C133.96 49.1074 133.549 49.2865 133.083 49.4297C132.618 49.5729 132.134 49.6624 131.633 49.6982C131.167 49.734 130.72 49.6982 130.29 49.5908C129.86 49.5192 129.484 49.376 129.162 49.1611C128.84 48.9105 128.571 48.5524 128.356 48.0869C128.177 47.693 127.998 47.1738 127.819 46.5293C127.676 45.8848 127.622 45.0791 127.658 44.1123C126.799 45.5446 125.85 46.6546 124.812 47.4424C123.773 48.1943 122.788 48.7493 121.857 49.1074C120.783 49.5013 119.709 49.734 118.635 49.8057C118.133 49.8057 117.596 49.6266 117.023 49.2686C116.451 48.9463 115.967 48.4271 115.573 47.7109C115.179 46.959 114.929 46.0101 114.821 44.8643C114.714 43.6826 114.857 42.2861 115.251 40.6748C115.752 38.4906 116.54 36.5033 117.614 34.7129C118.724 32.9225 119.924 31.4007 121.213 30.1475C122.502 28.8584 123.773 27.8916 125.026 27.2471C126.28 26.6025 127.318 26.3161 128.142 26.3877C129.108 26.5667 129.896 26.8532 130.505 27.2471C131.006 27.6051 131.328 28.1423 131.472 28.8584C131.651 29.5387 131.364 30.4518 130.612 31.5977C131.114 31.4902 131.525 31.4186 131.848 31.3828C132.206 31.347 132.474 31.3291 132.653 31.3291C132.868 31.3291 133.011 31.347 133.083 31.3828C133.119 31.4544 133.137 31.6156 133.137 31.8662C133.137 32.0811 133.083 32.4928 132.976 33.1016C132.868 33.7103 132.707 34.5339 132.492 35.5723C132.277 36.6107 131.991 37.9535 131.633 39.6006C131.561 39.9229 131.49 40.2272 131.418 40.5137C131.382 40.7643 131.328 41.0329 131.257 41.3193C131.221 41.57 131.167 41.8743 131.096 42.2324C131.024 42.5905 130.935 43.0381 130.827 43.5752C130.791 43.8975 130.773 44.2555 130.773 44.6494C130.809 45.0075 130.881 45.3477 130.988 45.6699C131.096 45.9922 131.257 46.2607 131.472 46.4756C131.722 46.6546 132.062 46.7441 132.492 46.7441C132.85 46.7441 133.316 46.5293 133.889 46.0996C134.462 45.6341 135.07 45.0612 135.715 44.3809C136.359 43.6647 137.022 42.8949 137.702 42.0713C138.418 41.2119 139.081 40.3883 139.689 39.6006C140.298 38.8128 140.835 38.1146 141.301 37.5059C141.802 36.8971 142.16 36.4495 142.375 36.1631C142.661 35.8408 142.948 35.6618 143.234 35.626C143.521 35.5544 143.736 35.626 143.879 35.8408C144.022 36.0557 144.04 36.3779 143.933 36.8076C143.861 37.2373 143.61 37.7386 143.181 38.3115ZM127.443 40.6748C127.622 39.9587 127.837 39.1172 128.088 38.1504C128.339 37.1836 128.553 36.2526 128.732 35.3574C128.911 34.4622 129.037 33.7282 129.108 33.1553C129.216 32.5465 129.198 32.2601 129.055 32.2959C128.876 32.3317 128.679 32.3854 128.464 32.457C128.285 32.5286 128.052 32.5824 127.766 32.6182C127.479 32.654 127.193 32.7077 126.906 32.7793C127.193 32.2064 127.354 31.7409 127.39 31.3828C127.461 30.9889 127.479 30.6846 127.443 30.4697C127.408 30.2191 127.336 30.0221 127.229 29.8789C126.835 29.5566 126.136 29.8252 125.134 30.6846C124.167 31.5081 123.039 33.0479 121.75 35.3037C121.213 36.2347 120.783 37.2373 120.461 38.3115C120.139 39.3499 119.906 40.3346 119.763 41.2656C119.655 42.1966 119.637 43.0202 119.709 43.7363C119.781 44.4167 119.924 44.8643 120.139 45.0791C120.533 45.473 120.98 45.6699 121.481 45.6699C121.983 45.6341 122.484 45.4909 122.985 45.2402C123.522 44.9538 124.042 44.5957 124.543 44.166C125.08 43.7363 125.546 43.2887 125.939 42.8232C126.369 42.3577 126.709 41.9281 126.96 41.5342C127.246 41.1403 127.408 40.8538 127.443 40.6748ZM151.398 17.3643C151.291 17.7581 151.076 18.152 150.754 18.5459C150.467 18.904 150.127 19.2083 149.733 19.459C149.375 19.6738 148.999 19.8171 148.605 19.8887C148.212 19.9603 147.889 19.8887 147.639 19.6738C146.887 19.1009 146.493 18.4922 146.457 17.8477C146.421 17.1673 146.582 16.5407 146.94 15.9678C147.299 15.359 147.746 14.8577 148.283 14.4639C148.82 14.0342 149.286 13.7835 149.68 13.7119C150.074 13.6403 150.396 13.7298 150.646 13.9805C150.933 14.1953 151.148 14.4997 151.291 14.8936C151.434 15.2516 151.506 15.6634 151.506 16.1289C151.542 16.5944 151.506 17.0062 151.398 17.3643ZM143.986 28.8047C144.165 28.5898 144.506 28.4108 145.007 28.2676C145.508 28.1243 146.027 28.0169 146.564 27.9453C147.102 27.8379 147.585 27.7842 148.015 27.7842C148.48 27.7484 148.749 27.7484 148.82 27.7842C148.856 27.82 148.767 28.196 148.552 28.9121C148.337 29.6283 148.068 30.4697 147.746 31.4365C147.424 32.4033 147.084 33.4059 146.726 34.4443C146.368 35.4469 146.099 36.2705 145.92 36.915C145.741 37.5596 145.526 38.2936 145.275 39.1172C145.025 39.9049 144.792 40.6927 144.577 41.4805C144.398 42.2324 144.273 42.9486 144.201 43.6289C144.13 44.3092 144.183 44.8285 144.362 45.1865C144.541 45.6162 144.738 45.9206 144.953 46.0996C145.168 46.2428 145.401 46.3145 145.651 46.3145C146.368 46.3145 147.263 45.9206 148.337 45.1328C149.447 44.3451 150.557 43.4141 151.667 42.3398C152.813 41.2298 153.869 40.1198 154.836 39.0098C155.803 37.8639 156.519 36.9508 156.984 36.2705C157.271 35.9124 157.557 35.6797 157.844 35.5723C158.166 35.4648 158.417 35.4827 158.596 35.626C158.811 35.7692 158.918 36.002 158.918 36.3242C158.954 36.6465 158.846 37.0225 158.596 37.4521C158.023 38.4548 157.181 39.6543 156.071 41.0508C154.961 42.4115 153.78 43.7363 152.526 45.0254C151.273 46.2786 150.038 47.3529 148.82 48.248C147.639 49.1432 146.672 49.6087 145.92 49.6445C145.311 49.6803 144.702 49.5729 144.094 49.3223C143.521 49.1074 142.984 48.8031 142.482 48.4092C142.017 47.9795 141.623 47.4961 141.301 46.959C140.979 46.3861 140.799 45.7952 140.764 45.1865C140.656 44.2913 140.656 43.0739 140.764 41.5342C140.871 39.9587 141.068 38.3652 141.354 36.7539C141.641 35.1068 141.999 33.5492 142.429 32.0811C142.894 30.613 143.413 29.5208 143.986 28.8047ZM171.755 38.7412C171.576 39.8512 171.397 40.9076 171.218 41.9102C171.075 42.9128 170.985 43.7184 170.949 44.3271C170.913 45.2223 171.075 45.8669 171.433 46.2607C171.791 46.6546 172.185 46.8516 172.614 46.8516C173.116 46.8516 173.724 46.6009 174.44 46.0996C175.192 45.5983 175.98 44.9717 176.804 44.2197C177.627 43.4678 178.451 42.6442 179.274 41.749C180.098 40.8538 180.85 40.0124 181.53 39.2246C182.246 38.401 182.837 37.6849 183.303 37.0762C183.804 36.4674 184.144 36.0736 184.323 35.8945C184.538 35.6797 184.753 35.5544 184.968 35.5186C185.218 35.4827 185.415 35.5186 185.559 35.626C185.702 35.7334 185.773 35.9303 185.773 36.2168C185.773 36.5033 185.63 36.8613 185.344 37.291C184.914 37.9714 184.359 38.777 183.679 39.708C182.998 40.6032 182.246 41.5342 181.423 42.501C180.599 43.4678 179.722 44.4167 178.791 45.3477C177.896 46.2786 176.983 47.1022 176.052 47.8184C175.157 48.5345 174.279 49.1074 173.42 49.5371C172.596 50.0026 171.844 50.2354 171.164 50.2354C170.663 50.2354 170.179 50.0921 169.714 49.8057C169.284 49.5192 168.89 49.1432 168.532 48.6777C168.174 48.2122 167.888 47.693 167.673 47.1201C167.494 46.5472 167.422 45.9743 167.458 45.4014C167.494 45.1507 167.548 44.721 167.619 44.1123C166.115 45.7952 164.593 47.138 163.054 48.1406C161.55 49.1074 160.1 49.5908 158.703 49.5908C158.202 49.5908 157.665 49.4655 157.092 49.2148C156.519 48.9642 156 48.5524 155.534 47.9795C155.104 47.4066 154.746 46.6546 154.46 45.7236C154.174 44.7926 154.066 43.6647 154.138 42.3398C154.245 40.263 154.657 38.2936 155.373 36.4316C156.089 34.5697 156.984 32.9583 158.059 31.5977C159.169 30.2012 160.404 29.109 161.765 28.3213C163.161 27.4977 164.558 27.0859 165.954 27.0859C166.563 27.0859 167.118 27.2471 167.619 27.5693C168.12 27.8558 168.55 28.2497 168.908 28.751C169.266 29.2165 169.553 29.7357 169.768 30.3086C170.018 30.8815 170.197 31.4186 170.305 31.9199C170.555 30.8815 170.788 29.861 171.003 28.8584C171.218 27.8558 171.433 26.9069 171.647 26.0117C172.006 24.6868 172.382 23.2546 172.775 21.7148C173.133 20.39 173.545 18.8682 174.011 17.1494C174.476 15.4307 174.995 13.6224 175.568 11.7246C175.926 11.4382 176.267 11.2233 176.589 11.0801C176.911 10.9368 177.215 10.8294 177.502 10.7578C177.824 10.6504 178.129 10.5967 178.415 10.5967C178.773 10.5967 179.095 10.6504 179.382 10.7578C179.668 10.8294 179.901 11.0622 180.08 11.4561C180.295 11.8141 180.438 12.3691 180.51 13.1211C180.581 13.873 180.581 14.8936 180.51 16.1826C180.438 17.7581 180.152 19.4769 179.65 21.3389C179.185 23.2008 178.558 25.1344 177.771 27.1396C176.983 29.109 176.07 31.0964 175.031 33.1016C174.029 35.071 172.937 36.9508 171.755 38.7412ZM168.586 39.4395C168.729 38.7591 168.854 38.0788 168.962 37.3984C169.105 36.7181 169.266 36.0199 169.445 35.3037C169.374 35.3395 169.302 35.3753 169.23 35.4111C169.195 35.4469 169.141 35.4827 169.069 35.5186C168.675 35.6976 168.407 35.6976 168.264 35.5186C168.12 35.3037 168.049 34.9814 168.049 34.5518C168.049 34.3369 168.031 33.9609 167.995 33.4238C167.959 32.8509 167.852 32.278 167.673 31.7051C167.53 31.0964 167.297 30.5771 166.975 30.1475C166.652 29.682 166.205 29.4492 165.632 29.4492C164.808 29.4492 163.967 29.8789 163.107 30.7383C162.248 31.5618 161.442 32.5824 160.69 33.7998C159.938 34.9814 159.312 36.2526 158.811 37.6133C158.309 38.974 158.023 40.1914 157.951 41.2656C157.88 42.9844 158.094 44.2197 158.596 44.9717C159.097 45.7236 159.777 46.0996 160.637 46.0996C161.281 46.0996 161.979 45.849 162.731 45.3477C163.519 44.8464 164.271 44.2376 164.987 43.5215C165.739 42.8053 166.42 42.0713 167.028 41.3193C167.673 40.5674 168.192 39.9408 168.586 39.4395ZM205.593 37.8281C204.519 39.4036 203.301 40.9434 201.94 42.4473C200.58 43.9154 199.13 45.2402 197.59 46.4219C196.086 47.5677 194.528 48.4987 192.917 49.2148C191.341 49.931 189.802 50.2891 188.298 50.2891C187.51 50.2891 186.651 50.0921 185.72 49.6982C184.825 49.3402 184.001 48.7673 183.249 47.9795C182.497 47.1917 181.888 46.1712 181.423 44.918C180.993 43.6647 180.868 42.1429 181.047 40.3525C181.19 38.8844 181.638 37.3447 182.39 35.7334C183.177 34.0863 184.126 32.5824 185.236 31.2217C186.382 29.861 187.653 28.7331 189.05 27.8379C190.482 26.9427 191.914 26.4951 193.347 26.4951C194.707 26.4951 195.692 26.8353 196.301 27.5156C196.91 28.196 197.178 29.0374 197.106 30.04C196.999 31.1501 196.677 32.1706 196.14 33.1016C195.638 34.0326 195.03 34.874 194.313 35.626C193.597 36.3779 192.827 37.0583 192.004 37.667C191.216 38.2757 190.464 38.8307 189.748 39.332C188.96 39.8691 188.208 40.3883 187.492 40.8896C186.776 41.3551 186.149 41.7848 185.612 42.1787C185.648 43.0739 185.809 43.8258 186.096 44.4346C186.382 45.0433 186.74 45.5446 187.17 45.9385C187.6 46.2965 188.083 46.5651 188.62 46.7441C189.193 46.8874 189.766 46.959 190.339 46.959C191.556 46.959 192.827 46.583 194.152 45.8311C195.477 45.0433 196.766 44.1123 198.02 43.0381C199.309 41.9281 200.49 40.7822 201.564 39.6006C202.674 38.4189 203.588 37.3984 204.304 36.5391C204.554 36.2526 204.805 36.0915 205.056 36.0557C205.342 35.984 205.557 36.0199 205.7 36.1631C205.879 36.2705 205.969 36.4854 205.969 36.8076C205.969 37.0941 205.843 37.4342 205.593 37.8281ZM191.843 29.5566C191.413 29.5566 190.894 29.7715 190.285 30.2012C189.712 30.6309 189.139 31.2575 188.566 32.0811C187.993 32.8688 187.456 33.8535 186.955 35.0352C186.454 36.181 186.078 37.5059 185.827 39.0098C186.257 38.6875 186.722 38.3652 187.224 38.043C187.725 37.6849 188.226 37.3089 188.728 36.915C190.267 35.7334 191.341 34.695 191.95 33.7998C192.559 32.9046 192.899 32.1348 192.971 31.4902C193.042 30.8099 192.971 30.3265 192.756 30.04C192.541 29.7178 192.237 29.5566 191.843 29.5566ZM213.542 17.3643C213.435 17.7581 213.22 18.152 212.897 18.5459C212.611 18.904 212.271 19.2083 211.877 19.459C211.519 19.6738 211.143 19.8171 210.749 19.8887C210.355 19.9603 210.033 19.8887 209.782 19.6738C209.03 19.1009 208.636 18.4922 208.601 17.8477C208.565 17.1673 208.726 16.5407 209.084 15.9678C209.442 15.359 209.89 14.8577 210.427 14.4639C210.964 14.0342 211.429 13.7835 211.823 13.7119C212.217 13.6403 212.539 13.7298 212.79 13.9805C213.076 14.1953 213.291 14.4997 213.435 14.8936C213.578 15.2516 213.649 15.6634 213.649 16.1289C213.685 16.5944 213.649 17.0062 213.542 17.3643ZM206.13 28.8047C206.309 28.5898 206.649 28.4108 207.15 28.2676C207.652 28.1243 208.171 28.0169 208.708 27.9453C209.245 27.8379 209.729 27.7842 210.158 27.7842C210.624 27.7484 210.892 27.7484 210.964 27.7842C211 27.82 210.91 28.196 210.695 28.9121C210.48 29.6283 210.212 30.4697 209.89 31.4365C209.567 32.4033 209.227 33.4059 208.869 34.4443C208.511 35.4469 208.243 36.2705 208.063 36.915C207.884 37.5596 207.67 38.2936 207.419 39.1172C207.168 39.9049 206.936 40.6927 206.721 41.4805C206.542 42.2324 206.416 42.9486 206.345 43.6289C206.273 44.3092 206.327 44.8285 206.506 45.1865C206.685 45.6162 206.882 45.9206 207.097 46.0996C207.312 46.2428 207.544 46.3145 207.795 46.3145C208.511 46.3145 209.406 45.9206 210.48 45.1328C211.59 44.3451 212.701 43.4141 213.811 42.3398C214.956 41.2298 216.013 40.1198 216.979 39.0098C217.946 37.8639 218.662 36.9508 219.128 36.2705C219.414 35.9124 219.701 35.6797 219.987 35.5723C220.31 35.4648 220.56 35.4827 220.739 35.626C220.954 35.7692 221.062 36.002 221.062 36.3242C221.097 36.6465 220.99 37.0225 220.739 37.4521C220.166 38.4548 219.325 39.6543 218.215 41.0508C217.105 42.4115 215.923 43.7363 214.67 45.0254C213.417 46.2786 212.181 47.3529 210.964 48.248C209.782 49.1432 208.815 49.6087 208.063 49.6445C207.455 49.6803 206.846 49.5729 206.237 49.3223C205.664 49.1074 205.127 48.8031 204.626 48.4092C204.16 47.9795 203.767 47.4961 203.444 46.959C203.122 46.3861 202.943 45.7952 202.907 45.1865C202.8 44.2913 202.8 43.0739 202.907 41.5342C203.015 39.9587 203.212 38.3652 203.498 36.7539C203.785 35.1068 204.143 33.5492 204.572 32.0811C205.038 30.613 205.557 29.5208 206.13 28.8047ZM244.372 38.3115C243.871 39.0277 243.226 39.9229 242.438 40.9971C241.651 42.0355 240.827 43.0918 239.968 44.166C239.144 45.2044 238.321 46.1712 237.497 47.0664C236.709 47.9258 236.047 48.5345 235.51 48.8926C235.152 49.1074 234.74 49.2865 234.274 49.4297C233.809 49.5729 233.326 49.6624 232.824 49.6982C232.359 49.734 231.911 49.6982 231.481 49.5908C231.052 49.5192 230.676 49.376 230.354 49.1611C230.031 48.9105 229.763 48.5524 229.548 48.0869C229.369 47.693 229.19 47.1738 229.011 46.5293C228.868 45.8848 228.814 45.0791 228.85 44.1123C227.99 45.5446 227.041 46.6546 226.003 47.4424C224.965 48.1943 223.98 48.7493 223.049 49.1074C221.975 49.5013 220.9 49.734 219.826 49.8057C219.325 49.8057 218.788 49.6266 218.215 49.2686C217.642 48.9463 217.159 48.4271 216.765 47.7109C216.371 46.959 216.12 46.0101 216.013 44.8643C215.905 43.6826 216.049 42.2861 216.442 40.6748C216.944 38.4906 217.731 36.5033 218.806 34.7129C219.916 32.9225 221.115 31.4007 222.404 30.1475C223.693 28.8584 224.965 27.8916 226.218 27.2471C227.471 26.6025 228.509 26.3161 229.333 26.3877C230.3 26.5667 231.088 26.8532 231.696 27.2471C232.198 27.6051 232.52 28.1423 232.663 28.8584C232.842 29.5387 232.556 30.4518 231.804 31.5977C232.305 31.4902 232.717 31.4186 233.039 31.3828C233.397 31.347 233.666 31.3291 233.845 31.3291C234.06 31.3291 234.203 31.347 234.274 31.3828C234.31 31.4544 234.328 31.6156 234.328 31.8662C234.328 32.0811 234.274 32.4928 234.167 33.1016C234.06 33.7103 233.898 34.5339 233.684 35.5723C233.469 36.6107 233.182 37.9535 232.824 39.6006C232.753 39.9229 232.681 40.2272 232.609 40.5137C232.574 40.7643 232.52 41.0329 232.448 41.3193C232.412 41.57 232.359 41.8743 232.287 42.2324C232.215 42.5905 232.126 43.0381 232.019 43.5752C231.983 43.8975 231.965 44.2555 231.965 44.6494C232.001 45.0075 232.072 45.3477 232.18 45.6699C232.287 45.9922 232.448 46.2607 232.663 46.4756C232.914 46.6546 233.254 46.7441 233.684 46.7441C234.042 46.7441 234.507 46.5293 235.08 46.0996C235.653 45.6341 236.262 45.0612 236.906 44.3809C237.551 43.6647 238.213 42.8949 238.894 42.0713C239.61 41.2119 240.272 40.3883 240.881 39.6006C241.49 38.8128 242.027 38.1146 242.492 37.5059C242.993 36.8971 243.352 36.4495 243.566 36.1631C243.853 35.8408 244.139 35.6618 244.426 35.626C244.712 35.5544 244.927 35.626 245.07 35.8408C245.214 36.0557 245.231 36.3779 245.124 36.8076C245.052 37.2373 244.802 37.7386 244.372 38.3115ZM228.635 40.6748C228.814 39.9587 229.029 39.1172 229.279 38.1504C229.53 37.1836 229.745 36.2526 229.924 35.3574C230.103 34.4622 230.228 33.7282 230.3 33.1553C230.407 32.5465 230.389 32.2601 230.246 32.2959C230.067 32.3317 229.87 32.3854 229.655 32.457C229.476 32.5286 229.243 32.5824 228.957 32.6182C228.671 32.654 228.384 32.7077 228.098 32.7793C228.384 32.2064 228.545 31.7409 228.581 31.3828C228.653 30.9889 228.671 30.6846 228.635 30.4697C228.599 30.2191 228.527 30.0221 228.42 29.8789C228.026 29.5566 227.328 29.8252 226.325 30.6846C225.358 31.5081 224.23 33.0479 222.941 35.3037C222.404 36.2347 221.975 37.2373 221.652 38.3115C221.33 39.3499 221.097 40.3346 220.954 41.2656C220.847 42.1966 220.829 43.0202 220.9 43.7363C220.972 44.4167 221.115 44.8643 221.33 45.0791C221.724 45.473 222.172 45.6699 222.673 45.6699C223.174 45.6341 223.675 45.4909 224.177 45.2402C224.714 44.9538 225.233 44.5957 225.734 44.166C226.271 43.7363 226.737 43.2887 227.131 42.8232C227.561 42.3577 227.901 41.9281 228.151 41.5342C228.438 41.1403 228.599 40.8538 228.635 40.6748Z" fill="#D11067"/>
</g>
<g clip-path="url(#clip0_513_1112)">
<ellipse cx="29.075" cy="31.1776" rx="29.075" ry="29.1776" fill="white"/>
<path fill-rule="evenodd" clip-rule="evenodd" d="M15.0064 5.59405C16.4597 4.79014 17.9804 4.1151 19.5512 3.57666C17.7028 12.8246 16.7888 22.2355 16.8231 31.6669C16.8231 35.191 16.9633 38.7278 17.2374 42.2582C16.651 39.1938 16.1729 36.1167 15.7841 33.0331C14.6514 24.1682 14.3739 15.2146 14.9555 6.29631L15.0064 5.59405ZM6.8858 49.8234C3.93996 46.3448 1.85326 42.2203 0.794618 37.7839C-0.264028 33.3474 -0.264884 28.7237 0.792121 24.2868C1.48341 28.8959 2.38094 33.4716 3.48201 38C4.45725 41.9837 5.5791 45.9355 6.8858 49.8234Z" fill="#90386D"/>
<path fill-rule="evenodd" clip-rule="evenodd" d="M16.5681 57.287C15.5421 56.7928 14.546 56.2385 13.585 55.6271C11.1481 49.5708 9.16239 43.3419 7.64432 36.9918C5.97239 30.1441 4.78175 23.1875 4.08118 16.1731C5.79059 13.3016 7.98137 10.7467 10.5573 8.62061C10.1773 16.9334 10.5121 25.2635 11.558 33.5188C12.5385 41.5718 14.2148 49.5243 16.5681 57.287Z" fill="#DA3C7F"/>
<path fill-rule="evenodd" clip-rule="evenodd" d="M56.9801 38.6069C55.2764 44.9116 51.5018 50.4576 46.2652 54.3502C47.1703 52.4861 48.1498 50.6581 49.2037 48.8663C51.0018 45.7972 53.0939 42.9108 55.4503 40.2477C55.9348 39.6667 56.4447 39.1368 56.9801 38.6069Z" fill="#90386D"/>
<path fill-rule="evenodd" clip-rule="evenodd" d="M49.3503 10.3696C52.0904 13.066 54.2666 16.2823 55.7517 19.8305C57.2369 23.3787 58.0012 27.1877 58 31.0351V32.0821C55.9213 33.6658 54.0002 35.4467 52.2633 37.4001C49.7272 40.27 47.4771 43.3811 45.5449 46.6891C44.2701 48.8086 43.1036 51.043 42.0137 53.3733C41.3168 54.8416 40.6581 56.3461 40.0377 57.8869C38.3135 58.5985 36.5247 59.1416 34.6962 59.5084C35.2849 51.2605 36.6595 43.0878 38.8011 35.1018C40.8924 27.111 44.0438 19.437 48.1711 12.2849C48.5599 11.6273 48.9551 10.9889 49.3503 10.3696Z" fill="#DA3C7F"/>
<path fill-rule="evenodd" clip-rule="evenodd" d="M38.4824 3.59619C41.1963 4.53934 43.7549 5.88197 46.074 7.5799C45.9911 7.72035 45.9019 7.85442 45.8126 7.98849C45.3665 8.68436 44.933 9.393 44.5378 10.108C40.1987 17.5852 36.8862 25.6144 34.6898 33.9784C32.8708 40.7243 31.5919 47.6048 30.8653 54.5545C30.4753 46.6008 30.7845 38.6282 31.7895 30.7288C32.905 21.4447 35.1527 12.3325 38.4824 3.59619Z" fill="#90386D"/>
<path fill-rule="evenodd" clip-rule="evenodd" d="M26.9707 60C26.1071 50.065 26.3059 40.066 27.5635 30.1733C28.7168 20.7114 30.9914 11.4208 34.3392 2.49796C32.5736 2.16652 30.7812 1.99981 28.9849 2C27.3661 2.00069 25.7501 2.13521 24.1533 2.4022C22.079 12.007 21.0489 21.8084 21.081 31.6352C21.0665 41.0646 22.097 50.4664 24.1533 59.668C25.0776 59.8212 26.0209 59.9362 26.9707 60Z" fill="#DA3C7F"/>
</g>
<defs>
<filter id="filter0_d_513_1112" x="82.4873" y="8.39453" width="164.798" height="52.1123" filterUnits="userSpaceOnUse" color-interpolation-filters="sRGB">
<feFlood flood-opacity="0" result="BackgroundImageFix"/>
<feColorMatrix in="SourceAlpha" type="matrix" values="0 0 0 0 0 0 0 0 0 0 0 0 0 0 0 0 0 0 127 0" result="hardAlpha"/>
<feOffset dx="2" dy="2"/>
<feColorMatrix type="matrix" values="0 0 0 0 1 0 0 0 0 1 0 0 0 0 1 0 0 0 1 0"/>
<feBlend mode="normal" in2="BackgroundImageFix" result="effect1_dropShadow_513_1112"/>
<feBlend mode="normal" in="SourceGraphic" in2="effect1_dropShadow_513_1112" result="shape"/>
</filter>
<clipPath id="clip0_513_1112">
<rect width="58" height="58" fill="white" transform="translate(0 2)"/>
</clipPath>
</defs>
</svg>
