<svg width="20" height="20" viewBox="0 0 20 20" fill="none" xmlns="http://www.w3.org/2000/svg">
<path d="M6.81808 11.8184H3.18175C2.90902 11.8184 2.72722 12.0002 2.72722 12.2729C2.72722 12.5456 2.90905 12.7274 3.18175 12.7274H6.81812C7.09085 12.7274 7.27265 12.5456 7.27265 12.2729C7.27265 12.0002 7.09081 11.8184 6.81808 11.8184Z" fill="white"/>
<path d="M5.45459 9.54541H1.81822C1.54549 9.54541 1.36369 9.72725 1.36369 9.99994C1.36369 10.2726 1.54553 10.4545 1.81822 10.4545H5.45459C5.72733 10.4545 5.90912 10.2726 5.90912 9.99994C5.90912 9.72725 5.72733 9.54541 5.45459 9.54541Z" fill="white"/>
<path d="M4.0909 7.27295H0.454531C0.181836 7.27295 0 7.45475 0 7.72748C0 8.00021 0.181836 8.18201 0.454531 8.18201H4.0909C4.36363 8.18201 4.54543 8.00018 4.54543 7.72748C4.54543 7.45478 4.36363 7.27295 4.0909 7.27295Z" fill="white"/>
<path d="M18.0909 6.0907C17.9546 5.90887 17.6364 5.86344 17.4546 5.9998L12.6364 9.68164C12.1364 10.0453 11.4546 10.0453 10.9546 9.68164L6.1364 5.9998C5.95456 5.86344 5.6364 5.86344 5.50003 6.0907C5.36366 6.27254 5.36366 6.5907 5.59093 6.72707L10.4546 10.4089C10.8637 10.7271 11.3637 10.8634 11.8182 10.8634C12.2727 10.8634 12.8182 10.7271 13.1818 10.4089L18 6.72707C18.1819 6.5907 18.2273 6.27254 18.0909 6.0907Z" fill="white"/>
<path d="M18.6363 4.09082H4.09084C3.81811 4.09082 3.63631 4.27266 3.63631 4.54535C3.63631 4.81805 3.81811 4.99992 4.09084 4.99992H18.6363C18.909 4.99992 19.0908 5.18176 19.0908 5.45445V14.5454C19.0908 14.8181 18.909 14.9999 18.6363 14.9999H4.09084C3.81811 14.9999 3.63631 15.1817 3.63631 15.4544C3.63631 15.7271 3.81814 15.9089 4.09084 15.9089H18.6363C19.409 15.9089 19.9999 15.318 19.9999 14.5453V5.45445C19.9999 4.68176 19.409 4.09082 18.6363 4.09082Z" fill="white"/>
<path d="M18.0455 13.3182L15.3182 10.591C15.1364 10.4091 14.8637 10.4091 14.6818 10.591C14.5 10.7728 14.5 11.0455 14.6818 11.2273L17.4091 13.9546C17.5 14.0455 17.6364 14.091 17.7273 14.091C17.8182 14.091 17.9545 14.0455 18.0455 13.9546C18.2273 13.7728 18.2273 13.5001 18.0455 13.3182Z" fill="white"/>
</svg>
