<svg class="SVGInline-svg mr-xsm-svg css-25qyin-svg css-56kyx5-svg" xmlns="http://www.w3.org/2000/svg" width="24" height="24" viewBox="0 0 24 24"><path d="M12 9a2 2 0 102 2 2 2 0 00-2-2zm0-1a3 3 0 11-3 3 3 3 0 013-3zm8 10a1 1 0 01-1 1H5a1 1 0 01-1-1zm1-13H3.05a1 1 0 00-1 1v10a1 1 0 001 1.05H21A1 1 0 0022 16V6.05A1 1 0 0021 5zM3 6.5a.5.5 0 01.5-.5h1.56A2.06 2.06 0 013 8.06zm.5 9.5a.5.5 0 01-.5-.5v-1.56A2.06 2.06 0 015.06 16zm17.5-.5a.5.5 0 01-.5.5h-1.56A2.06 2.06 0 0121 13.94zm0-2.56A3.06 3.06 0 0017.94 16H6.06A3.06 3.06 0 003 12.94V9.06A3.06 3.06 0 006.06 6h11.88A3.06 3.06 0 0021 9.06zm0-4.88h-.1a1.74 1.74 0 01-2-2.07h1.6a.5.5 0 01.5.5z" fill="currentColor" fill-rule="evenodd"></path></svg>