<svg width="50" height="50" viewBox="0 0 50 50" fill="none" xmlns="http://www.w3.org/2000/svg">
<g clip-path="url(#clip0_501_1122)">
<path d="M33.116 20.041V10.415L41.4551 15.2194L33.116 20.041ZM35.2094 14.0355V16.4377L37.2855 15.2366L35.2094 14.0355Z" fill="white"/>
<path d="M44.8011 28.1226H46.8772V38.5378H44.8011V28.1226Z" fill="white"/>
<path d="M5.21609 38.5378H3.12275V15.6311C3.12275 13.9153 4.52978 12.5083 6.24559 12.5083H22.9066V14.5845H6.26276C5.69654 14.5845 5.21609 15.0478 5.21609 15.6311V38.5378Z" fill="white"/>
<path d="M46.8771 45.8307H3.12284C1.40703 45.8307 -3.8147e-06 44.4236 -3.8147e-06 42.7078V39.585H50V42.7078C50 44.4236 48.593 45.8307 46.8771 45.8307ZM2.09334 41.6611V42.7078C2.09334 43.274 2.55663 43.7545 3.14001 43.7545H46.8943C47.4605 43.7545 47.941 43.2912 47.941 42.7078V41.6611H2.09334Z" fill="white"/>
<path d="M23.9705 38.538H21.8944V36.4618C21.8944 34.7459 20.4873 33.3389 18.7715 33.3389H11.462C9.7461 33.3389 8.33915 34.746 8.33915 36.4618V38.538H6.26289V36.4618C6.26289 33.5963 8.59642 31.2456 11.4791 31.2456H18.7714C21.6369 31.2456 23.9876 33.5791 23.9876 36.4618V38.538H23.9705Z" fill="white"/>
<path d="M15.1167 30.2158C12.5258 30.2158 10.4324 28.1053 10.4324 25.5315C10.4324 22.9578 12.5258 20.8301 15.1167 20.8301C17.7077 20.8301 19.801 22.9406 19.801 25.5144C19.801 28.0882 17.6905 30.2158 15.1167 30.2158ZM15.1167 22.9235C13.6755 22.9235 12.5086 24.0903 12.5086 25.5316C12.5086 26.9729 13.6754 28.1398 15.1167 28.1398C16.5581 28.1398 17.7249 26.973 17.7249 25.5316C17.7249 24.0903 16.5409 22.9235 15.1167 22.9235Z" fill="white"/>
<path d="M27.0933 33.768V26.0467H22.9238V4.16943H50V26.0466H34.8147L27.0933 33.768ZM25 23.9532H29.1695V28.7233L33.9396 23.9532H47.9067V6.24561H25V23.9532Z" fill="white"/>
</g>
<defs>
<clipPath id="clip0_501_1122">
<rect width="50" height="50" fill="white"/>
</clipPath>
</defs>
</svg>
