<svg width="20" height="20" viewBox="0 0 20 20" fill="none" xmlns="http://www.w3.org/2000/svg">
<g clip-path="url(#clip0_516_202)">
<path d="M18.7719 14.1213C18.7388 14.0938 14.9956 11.415 13.98 11.5906C13.4919 11.6769 13.2125 12.0094 12.6531 12.6762C12.5631 12.7837 12.3462 13.0406 12.1788 13.2238C11.8252 13.1086 11.4804 12.9682 11.1469 12.8038C9.42533 11.9656 8.03437 10.5747 7.19625 8.85312C7.03179 8.51964 6.89143 8.1748 6.77625 7.82125C6.96 7.65312 7.2175 7.43625 7.3275 7.34375C7.99062 6.7875 8.32312 6.50812 8.40938 6.01937C8.58625 5.0075 5.90625 1.26125 5.87875 1.2275C5.7567 1.05441 5.59775 0.910578 5.41336 0.806386C5.22897 0.702193 5.02374 0.640241 4.8125 0.625C3.72625 0.625 0.625 4.6475 0.625 5.32562C0.625 5.365 0.681875 9.3675 5.6175 14.3881C10.6325 19.3181 14.635 19.375 14.6744 19.375C15.3525 19.375 19.375 16.2737 19.375 15.1875C19.3598 14.9762 19.2978 14.7709 19.1935 14.5865C19.0891 14.4021 18.9451 14.2432 18.7719 14.1213ZM14.6056 18.1213C14.0594 18.0763 10.7006 17.6331 6.50125 13.5075C2.35438 9.28562 1.9225 5.9175 1.87937 5.39563C2.69861 4.10978 3.68799 2.94064 4.82062 1.92C4.84562 1.945 4.87875 1.9825 4.92125 2.03125C5.78989 3.21702 6.53817 4.48642 7.155 5.82062C6.95441 6.02242 6.7424 6.21253 6.52 6.39C6.17512 6.65278 5.85843 6.95063 5.575 7.27875L5.42313 7.49125L5.46812 7.74813C5.60039 8.32108 5.80297 8.87549 6.07125 9.39875C7.03243 11.3725 8.62735 12.9672 10.6012 13.9281C11.1244 14.1968 11.6788 14.3996 12.2519 14.5319L12.5087 14.5769L12.7213 14.425C13.0506 14.1403 13.3497 13.8224 13.6137 13.4762C13.8094 13.2425 14.0713 12.9306 14.17 12.8425C15.508 13.4587 16.7806 14.2079 17.9688 15.0787C18.0206 15.1225 18.0569 15.1562 18.0812 15.1781C17.0608 16.3111 15.8916 17.3007 14.6056 18.12V18.1213Z" fill="white"/>
</g>
<defs>
<clipPath id="clip0_516_202">
<rect width="20" height="20" fill="white"/>
</clipPath>
</defs>
</svg>
