<svg width="40" height="40" viewBox="0 0 40 40" fill="none" xmlns="http://www.w3.org/2000/svg">
<g clip-path="url(#clip0_509_2149)">
<path d="M10.7004 25.1745C11.074 24.9591 11.2018 24.4809 10.9864 24.1073C10.7706 23.7341 10.2927 23.6059 9.91917 23.8214C9.54564 24.0371 9.41746 24.5153 9.63322 24.8886C9.84868 25.2621 10.3269 25.3903 10.7004 25.1745Z" fill="#6440FB"/>
<path d="M7.49871 30.5668L11.433 37.3816C12.282 38.8538 14.1918 39.3989 15.7021 38.5258C17.1966 37.6621 17.7102 35.7526 16.8456 34.257L14.5019 30.1969L16.5316 29.025C16.9051 28.809 17.0333 28.3314 16.8176 27.9578L15.8016 26.1982C15.9228 26.1747 16.7193 26.0184 30.7656 23.263C32.5021 23.1687 33.5424 21.2696 32.6653 19.7513L30.0689 15.2543L31.7281 12.7411C31.8911 12.494 31.9009 12.1763 31.7529 11.9199L30.1904 9.21362C30.0423 8.95727 29.7613 8.80713 29.4668 8.82452L26.4611 9.00488L23.5787 4.01221C23.1612 3.28894 22.4133 2.85101 21.5783 2.84064C21.5682 2.84033 21.5585 2.84033 21.5484 2.84033C20.7415 2.84033 20.0091 3.24194 19.5751 3.92096L9.36943 16.9221L2.73461 20.7526C0.125049 22.2587 -0.778882 25.6064 0.732959 28.223C2.11418 30.6156 5.02617 31.5568 7.49871 30.5668ZM15.4928 35.0385C15.9243 35.785 15.6689 36.7402 14.9203 37.1726C14.1692 37.6069 13.2128 37.3401 12.7862 36.6007L8.87993 29.834L11.5862 28.2715C16.1071 36.103 15.4202 34.9131 15.4928 35.0385ZM13.7206 28.8434L12.9394 27.4903L14.2925 26.709L15.0738 28.0622L13.7206 28.8434ZM29.0786 10.413L30.1583 12.2831L29.1955 13.7412L27.3345 10.5176L29.0786 10.413ZM20.8819 4.77759C21.0915 4.43457 21.4242 4.39917 21.5591 4.40283C21.6924 4.40436 22.0248 4.44586 22.2253 4.79315L31.3122 20.5326C31.6082 21.045 31.2484 21.6892 30.6548 21.7039C30.5483 21.7063 30.4992 21.7255 30.2264 21.7765L20.6142 5.12762C20.816 4.86822 20.8419 4.8432 20.8819 4.77759ZM19.5745 6.45209L28.6056 22.0945L14.9758 24.7678L10.8315 17.5898L19.5745 6.45209ZM2.08611 27.4418C1.74309 26.8482 1.56182 26.1744 1.56182 25.4926C1.56182 24.0992 2.31072 22.8016 3.51586 22.1058L9.60503 18.5901L13.5113 25.3559L7.42211 28.8718C5.55657 29.9485 3.16307 29.307 2.08611 27.4418Z" fill="#6440FB"/>
<path d="M8.28007 25.67C8.06432 25.2965 7.58641 25.1683 7.21287 25.3841L5.85973 26.1653C5.4868 26.3808 5.00798 26.2523 4.79253 25.8794C4.57677 25.5058 4.09886 25.3777 3.72533 25.5934C3.35179 25.8092 3.22362 26.2871 3.43938 26.6606C4.08238 27.7745 5.51671 28.1673 6.64098 27.5185L7.99412 26.7372C8.36766 26.5215 8.49583 26.0439 8.28007 25.67Z" fill="#6440FB"/>
<path d="M38.8389 4.51144L34.4856 6.93392C34.1087 7.14388 33.9729 7.61965 34.1828 7.99654C34.3922 8.37313 34.8676 8.50954 35.2454 8.29928L39.5985 5.87679C39.9757 5.66683 40.1112 5.19106 39.9012 4.81417C39.6915 4.43697 39.2158 4.30147 38.8389 4.51144Z" fill="#6440FB"/>
<path d="M38.3823 12.6031L35.3638 11.7944C34.9469 11.6827 34.5184 11.9299 34.4068 12.3468C34.2951 12.7636 34.5426 13.1918 34.9594 13.3035L37.9782 14.1122C38.3975 14.2248 38.8239 13.9737 38.935 13.5599C39.0467 13.143 38.7992 12.7145 38.3823 12.6031Z" fill="#6440FB"/>
<path d="M30.7968 1.67295L29.9872 4.69175C29.8755 5.10862 30.1227 5.53678 30.5396 5.64878C30.9561 5.76017 31.3846 5.51359 31.4966 5.09641L32.3059 2.07761C32.4176 1.66074 32.1704 1.23228 31.7535 1.12058C31.337 1.00889 30.9085 1.25608 30.7968 1.67295Z" fill="#6440FB"/>
</g>
<defs>
<clipPath id="clip0_509_2149">
<rect width="40" height="40" fill="white"/>
</clipPath>
</defs>
</svg>
