<svg width="35" height="35" viewBox="0 0 35 35" fill="none" xmlns="http://www.w3.org/2000/svg">
<g clip-path="url(#clip0_509_2162)">
<path d="M34.3206 0.000840866C24.3462 -0.0770884 15.712 5.26824 9.69077 13.3047C7.11097 12.0999 4.00788 12.6241 1.9647 14.6673C1.69789 14.9341 1.69775 15.367 1.9647 15.6341L7.4825 21.1519L6.45554 24.801C6.38855 25.039 6.45534 25.2947 6.6302 25.4695L9.53067 28.3701C9.70642 28.5458 9.9627 28.6114 10.1992 28.5447L13.8483 27.5177C14.4417 28.1111 18.7768 32.4463 19.3661 33.0356C19.633 33.3024 20.0659 33.3025 20.3329 33.0356C22.3765 30.9919 22.9006 27.8886 21.6947 25.309C23.9116 23.6486 26.9191 21.0138 29.5104 17.4102C29.7307 17.1036 29.661 16.6765 29.3544 16.4561C29.048 16.2358 28.6208 16.3055 28.4003 16.612C25.7241 20.3339 22.58 22.9857 20.4136 24.555C18.1699 26.1813 16.4788 27.0285 15.6574 27.3933C14.9993 26.7351 12.8757 24.6116 12.1155 23.8514L15.9825 19.9844C16.2495 19.7175 16.2495 19.2846 15.9825 19.0176C15.7157 18.7507 15.2827 18.7507 15.0158 19.0176L11.1488 22.8846C8.59121 20.327 11.3746 23.1097 7.60698 19.3427C9.78237 14.4447 16.6823 5.3327 26.974 2.37098C27.2009 3.78212 27.8628 5.08791 28.8874 6.11309C29.912 7.13711 31.2174 7.79896 32.628 8.02605C32.2991 9.16764 31.8888 10.2997 31.4016 11.4009C31.2489 11.7462 31.4049 12.1499 31.7502 12.3027C32.0962 12.4555 32.4994 12.2989 32.6519 11.954C34.2898 8.25129 35.0262 4.45579 34.9992 0.679577C34.9966 0.305859 34.6943 0.00350687 34.3206 0.000840866ZM20.5598 26.126C21.3004 27.9306 21.0183 30.0106 19.8193 31.5551L16.6881 28.4237C17.8507 27.8648 19.2139 27.0566 20.5598 26.126ZM8.59087 22.2601C9.0255 22.6947 12.3 25.9693 12.74 26.4092L10.2143 27.12L7.88007 24.7858L8.59087 22.2601ZM6.5764 18.3122L3.44508 15.1809C4.98917 13.9822 7.06893 13.7 8.87367 14.4398C7.94372 15.7852 7.13571 17.1486 6.5764 18.3122ZM32.9742 6.69633C31.7969 6.53527 30.7047 5.99633 29.8541 5.14622C29.0038 4.29549 28.4648 3.20325 28.3038 2.02584C30.0391 1.62546 31.8245 1.40575 33.6282 1.37192C33.5943 3.17557 33.3746 4.96117 32.9742 6.69633Z" fill="#E8543E"/>
<path d="M18.3265 9.90685C16.4585 11.7748 16.4583 14.8057 18.3265 16.6739C20.1943 18.5417 23.2254 18.5421 25.0935 16.6739C26.9615 14.806 26.9617 11.775 25.0935 9.90685C23.2256 8.039 20.1946 8.03873 18.3265 9.90685ZM24.1268 15.7071C22.7931 17.0408 20.627 17.0409 19.2933 15.7071C17.9597 14.3737 17.9594 12.2073 19.2933 10.8737C20.6269 9.53996 22.793 9.5399 24.1268 10.8737C25.4604 12.2071 25.4606 14.3735 24.1268 15.7071Z" fill="#E8543E"/>
<path d="M30.5072 15.0371C30.8847 15.0371 31.1908 14.7311 31.1908 14.3535C31.1908 13.976 30.8847 13.6699 30.5072 13.6699C30.1297 13.6699 29.8236 13.976 29.8236 14.3535C29.8236 14.7311 30.1297 15.0371 30.5072 15.0371Z" fill="#E8543E"/>
<path d="M3.72949 27.4035C2.89018 28.2435 0.532668 33.061 0.0685765 34.0183C-0.0584353 34.2802 -0.00559347 34.594 0.200305 34.7999C0.407297 35.0068 0.721408 35.058 0.981926 34.9316C1.93916 34.4675 6.75672 32.11 7.59679 31.2707C7.59686 31.2706 7.59693 31.2706 7.59699 31.2705C8.6632 30.2043 8.6632 28.4694 7.59699 27.4033C6.5284 26.3346 4.79891 26.3339 3.72949 27.4035ZM6.63039 30.3035C6.25428 30.6793 4.17957 31.798 2.19831 32.8018C3.20224 30.8206 4.32087 28.7459 4.69644 28.37C5.23094 27.8355 6.09548 27.8353 6.63019 28.37C7.16325 28.9031 7.16332 29.7704 6.63039 30.3035Z" fill="#E8543E"/>
</g>
<defs>
<clipPath id="clip0_509_2162">
<rect width="35" height="35" fill="white"/>
</clipPath>
</defs>
</svg>
