<svg class="SVGInline-svg mr-xsm-svg css-25qyin-svg css-170llpw-svg" xmlns="http://www.w3.org/2000/svg" width="24" height="24" viewBox="0 0 24 24"><path d="M16 4H8a1 1 0 00-1 1v1h10V5a1 1 0 00-1-1zm-1.5 10a.5.5 0 01.09 1H9.5a.5.5 0 010-1zM20 7H4a1 1 0 00-1 1v6a1 1 0 001 1h3.28l.5 2h8.44l.5-2H20a1 1 0 001-1V8a1 1 0 00-1-1zM6.5 16H4v3a1 1 0 001 1h14a1 1 0 001-1v-3h-2.5l-.5 2H7zM16 3a2 2 0 012 2v1h2a2 2 0 012 2v6a2 2 0 01-1 1.73V19a2 2 0 01-2 2H5a2 2 0 01-2-2v-3.27A2 2 0 012 14V8a2 2 0 012-2h2V5a2 2 0 012-2z" fill="currentColor" fill-rule="evenodd"></path></svg>